<svg width="303" height="42" viewBox="0 0 303 42" fill="none" xmlns="http://www.w3.org/2000/svg">
<path d="M12.5266 23.5781L23.7297 39H17.05L6.71407 24.1875H5.72969V39H0.268753V2.8125H6.66719C11.4484 2.8125 14.9016 3.71094 17.0266 5.50781C19.3703 7.50781 20.5422 10.1484 20.5422 13.4297C20.5422 15.9922 19.8078 18.1953 18.3391 20.0391C16.8703 21.8828 14.9328 23.0625 12.5266 23.5781ZM5.72969 19.4297H7.46407C12.6359 19.4297 15.2219 17.4531 15.2219 13.5C15.2219 9.79688 12.7063 7.94531 7.675 7.94531H5.72969V19.4297ZM43.5906 39V0.351562L69.9813 27.9609V2.8125H75.4422V41.2031L49.0516 13.6641V39H43.5906ZM99.1938 36.375C99.1938 35.5 99.5141 34.7422 100.155 34.1016C100.795 33.4609 101.561 33.1406 102.452 33.1406C103.342 33.1406 104.108 33.4609 104.748 34.1016C105.389 34.7422 105.709 35.5078 105.709 36.3984C105.709 37.3047 105.389 38.0781 104.748 38.7188C104.123 39.3438 103.358 39.6562 102.452 39.6562C101.53 39.6562 100.756 39.3438 100.131 38.7188C99.5063 38.0938 99.1938 37.3125 99.1938 36.375ZM134.055 16.9688H149.664V2.8125H155.125V39H149.664V22.1016H134.055V39H128.594V2.8125H134.055V16.9688ZM199.455 30.2109H183.963L179.931 39H174.048L191.955 0.539062L209.228 39H203.252L199.455 30.2109ZM197.228 25.0781L191.861 12.7734L186.236 25.0781H197.228ZM253.23 4.75781V11.2266C250.073 8.58594 246.808 7.26562 243.433 7.26562C239.714 7.26562 236.581 8.60156 234.034 11.2734C231.472 13.9297 230.191 17.1797 230.191 21.0234C230.191 24.8203 231.472 28.0234 234.034 30.6328C236.597 33.2422 239.738 34.5469 243.456 34.5469C245.378 34.5469 247.011 34.2344 248.355 33.6094C249.105 33.2969 249.878 32.875 250.675 32.3438C251.488 31.8125 252.339 31.1719 253.23 30.4219V37.0078C250.105 38.7734 246.823 39.6562 243.386 39.6562C238.214 39.6562 233.8 37.8516 230.144 34.2422C226.503 30.6016 224.683 26.2109 224.683 21.0703C224.683 16.4609 226.206 12.3516 229.253 8.74219C233.003 4.32031 237.855 2.10938 243.808 2.10938C247.058 2.10938 250.198 2.99219 253.23 4.75781ZM281.036 17.25L295.122 2.8125H302.411L286.052 19.1953L302.505 39H295.192L282.161 22.8984L281.036 24.0234V39H275.575V2.8125H281.036V17.25Z" fill="#FDFBFB"/>
</svg>
